# MagicaVoxel @ Ephtracy

# group
o 

# material
mtllib Shotgun.mtl
usemtl palette

# normals
vn -1 0 0
vn 1 0 0
vn 0 0 1
vn 0 0 -1
vn 0 -1 0
vn 0 1 0

# texcoords
vt 0.306641 0.5
vt 0.369141 0.5
vt 0.373047 0.5
vt 0.392578 0.5
vt 0.396484 0.5
vt 0.841797 0.5
vt 0.978516 0.5
vt 0.986328 0.5
vt 0.994141 0.5

# verts
v -2.5 0.7 0.1
v -2.5 0.7 -0.2
v -2.5 0.8 0
v -2.5 0.8 -0.1
v -2.5 1 0
v -2.5 1 -0.1
v -2.5 1.1 0.1
v -2.5 1.1 0
v -2.5 1.1 -0.1
v -2.5 1.1 -0.2
v -2.5 1.2 0
v -2.5 1.2 -0.1
v -1.8 0.6 0.2
v -1.8 0.6 -0.3
v -1.8 0.7 0.1
v -1.8 0.7 -0.2
v -1.8 0.9 0.2
v -1.8 0.9 0.1
v -1.8 0.9 -0.2
v -1.8 0.9 -0.3
v -1.4 0.8 0
v -1.4 0.8 -0.1
v -1.4 1 0
v -1.4 1 -0.1
v -0.2 0.6 0.1
v -0.2 0.6 -0.2
v -0.2 0.7 0.1
v -0.2 0.7 -0.2
v 2.38419e-007 0.5 0.1
v 2.38419e-007 0.5 -0.2
v 2.38419e-007 0.6 0.1
v 2.38419e-007 0.6 -0.2
v 0.1 0.4 0.2
v 0.1 0.4 -0.3
v 0.1 0.5 0.1
v 0.1 0.5 -0.2
v 0.1 1.1 0.2
v 0.1 1.1 0.1
v 0.1 1.1 -0.2
v 0.1 1.1 -0.3
v 0.8 0 0
v 0.8 0 -0.1
v 0.8 0.4 0
v 0.8 0.4 -0.1
v 1 0.1 0
v 1 0.1 -0.1
v 1 0.3 0
v 1 0.3 -0.1
v 1.4 1.1 0.1
v 1.4 1.1 0
v 1.4 1.1 -0.1
v 1.4 1.1 -0.2
v 1.4 1.2 0.1
v 1.4 1.2 0
v 1.4 1.2 -0.1
v 1.4 1.2 -0.2
v 1.7 0.3 0.2
v 1.7 0.3 -0.2
v 1.7 0.3 -0.3
v 1.7 0.4 0.2
v 1.7 0.4 -0.2
v 1.7 0.4 -0.3
v 1.8 0.2 0.2
v 1.8 0.2 -0.2
v 1.8 0.2 -0.3
v 1.8 0.3 0.2
v 1.8 0.3 -0.2
v 1.8 0.3 -0.3
v 2.1 0.1 0.2
v 2.1 0.1 -0.2
v 2.1 0.1 -0.3
v 2.1 0.2 0.2
v 2.1 0.2 -0.2
v 2.1 0.2 -0.3
v 2.3 0 0.2
v 2.3 0 -0.2
v 2.3 0 -0.3
v 2.3 0.1 0.2
v 2.3 0.1 -0.2
v 2.3 0.1 -0.3
v -2.3 1.1 0
v -2.3 1.1 -0.1
v -2.3 1.2 0
v -2.3 1.2 -0.1
v -0.8 0.6 0.2
v -0.8 0.6 -0.3
v -0.8 0.7 0.1
v -0.8 0.7 -0.2
v -0.8 0.9 0.2
v -0.8 0.9 0.1
v -0.8 0.9 -0.2
v -0.8 0.9 -0.3
v 0.9 0.1 0
v 0.9 0.1 -0.1
v 0.9 0.3 0
v 0.9 0.3 -0.1
v 1.1 0 0
v 1.1 0 -0.1
v 1.1 0.4 0
v 1.1 0.4 -0.1
v 1.5 1 0.2
v 1.5 1 -0.3
v 1.5 1.1 0.2
v 1.5 1.1 0.1
v 1.5 1.1 0
v 1.5 1.1 -0.1
v 1.5 1.1 -0.2
v 1.5 1.1 -0.3
v 1.5 1.2 0.1
v 1.5 1.2 0
v 1.5 1.2 -0.1
v 1.5 1.2 -0.2
v 1.7 0.9 0.2
v 1.7 0.9 0.1
v 1.7 0.9 -0.3
v 1.7 1 0.2
v 1.7 1 -0.3
v 3 0 0.2
v 3 0 -0.3
v 3 0.9 0.2
v 3 0.9 -0.3
v -1.8 0.6 0.2
v -1.8 0.9 0.2
v -1.7 0.6 0.2
v -1.7 0.9 0.2
v -1.5 0.6 0.2
v -1.5 0.8 0.2
v -1.4 0.6 0.2
v -1.4 0.8 0.2
v -1.1 0.6 0.2
v -1.1 0.8 0.2
v -1 0.6 0.2
v -1 0.8 0.2
v -0.9 0.6 0.2
v -0.9 0.9 0.2
v -0.8 0.6 0.2
v -0.8 0.9 0.2
v 0.1 0.4 0.2
v 0.1 1.1 0.2
v 1.5 1 0.2
v 1.5 1.1 0.2
v 1.7 0.3 0.2
v 1.7 0.4 0.2
v 1.7 0.9 0.2
v 1.7 1 0.2
v 1.8 0.2 0.2
v 1.8 0.3 0.2
v 2.1 0.1 0.2
v 2.1 0.2 0.2
v 2.3 0 0.2
v 2.3 0.1 0.2
v 2.9 0 0.2
v 2.9 0.9 0.2
v 3 0 0.2
v 3 0.9 0.2
v -2.5 0.7 0.1
v -2.5 1.1 0.1
v -1.9 0.9 0.1
v -1.9 1.1 0.1
v -1.8 0.7 0.1
v -1.8 0.9 0.1
v -1.8 1.1 0.1
v -1.7 0.9 0.1
v -1.4 1 0.1
v -1.4 1.1 0.1
v -1.3 1 0.1
v -1.3 1.1 0.1
v -0.9 0.9 0.1
v -0.9 1 0.1
v -0.9 1.1 0.1
v -0.8 0.7 0.1
v -0.8 0.9 0.1
v -0.8 1 0.1
v -0.8 1.1 0.1
v -0.4 0.8 0.1
v -0.4 1.1 0.1
v -0.3 0.8 0.1
v -0.3 1.1 0.1
v -0.2 0.6 0.1
v -0.2 0.7 0.1
v 2.38419e-007 0.5 0.1
v 2.38419e-007 0.6 0.1
v 0.1 0.5 0.1
v 0.1 1.1 0.1
v 1.4 1.1 0.1
v 1.4 1.2 0.1
v 1.5 1.1 0.1
v 1.5 1.2 0.1
v -2.5 1.1 0
v -2.5 1.2 0
v -2.3 1.1 0
v -2.3 1.2 0
v 0.8 0 0
v 0.8 0.4 0
v 0.9 0.1 0
v 0.9 0.3 0
v 1 0.1 0
v 1 0.3 0
v 1.1 0 0
v 1.1 0.4 0
v -2.5 0.8 -0.1
v -2.5 1 -0.1
v -2.4 1 -0.1
v -2.3 1 -0.1
v -1.9 0.9 -0.1
v -1.9 1 -0.1
v -1.8 0.9 -0.1
v -1.8 1 -0.1
v -1.4 0.8 -0.1
v -1.4 1 -0.1
v 1.4 1.1 -0.1
v 1.4 1.2 -0.1
v 1.5 1.1 -0.1
v 1.5 1.2 -0.1
v -2.5 0.8 0
v -2.5 1 0
v -2.4 1 0
v -2.3 1 0
v -1.9 0.9 0
v -1.9 1 0
v -1.8 0.9 0
v -1.8 1 0
v -1.4 0.8 0
v -1.4 1 0
v 1.4 1.1 0
v 1.4 1.2 0
v 1.5 1.1 0
v 1.5 1.2 0
v -2.5 1.1 -0.1
v -2.5 1.2 -0.1
v -2.3 1.1 -0.1
v -2.3 1.2 -0.1
v 0.8 0 -0.1
v 0.8 0.4 -0.1
v 0.9 0.1 -0.1
v 0.9 0.3 -0.1
v 1 0.1 -0.1
v 1 0.3 -0.1
v 1.1 0 -0.1
v 1.1 0.4 -0.1
v -2.5 0.7 -0.2
v -2.5 1.1 -0.2
v -1.9 0.9 -0.2
v -1.9 1.1 -0.2
v -1.8 0.7 -0.2
v -1.8 0.9 -0.2
v -1.8 1.1 -0.2
v -1.7 0.9 -0.2
v -1.4 1 -0.2
v -1.4 1.1 -0.2
v -1.3 1 -0.2
v -1.3 1.1 -0.2
v -1.2 0.9 -0.2
v -1 0.9 -0.2
v -0.9 0.9 -0.2
v -0.9 1 -0.2
v -0.9 1.1 -0.2
v -0.8 0.7 -0.2
v -0.8 0.9 -0.2
v -0.8 1 -0.2
v -0.8 1.1 -0.2
v -0.4 0.8 -0.2
v -0.4 1.1 -0.2
v -0.3 0.8 -0.2
v -0.3 1.1 -0.2
v -0.2 0.6 -0.2
v -0.2 0.7 -0.2
v 2.38419e-007 0.5 -0.2
v 2.38419e-007 0.6 -0.2
v 0.1 0.5 -0.2
v 0.1 1.1 -0.2
v 1.4 1.1 -0.2
v 1.4 1.2 -0.2
v 1.5 1.1 -0.2
v 1.5 1.2 -0.2
v -1.8 0.6 -0.3
v -1.8 0.9 -0.3
v -1.7 0.6 -0.3
v -1.7 0.9 -0.3
v -1.5 0.6 -0.3
v -1.5 0.7 -0.3
v -1.4 0.6 -0.3
v -1.4 0.7 -0.3
v -1.2 0.8 -0.3
v -1.2 0.9 -0.3
v -1.1 0.6 -0.3
v -1.1 0.7 -0.3
v -1.1 0.8 -0.3
v -1 0.6 -0.3
v -1 0.7 -0.3
v -1 0.8 -0.3
v -1 0.9 -0.3
v -0.9 0.6 -0.3
v -0.9 0.9 -0.3
v -0.8 0.6 -0.3
v -0.8 0.9 -0.3
v 0.1 0.4 -0.3
v 0.1 1.1 -0.3
v 1.5 1 -0.3
v 1.5 1.1 -0.3
v 1.7 0.3 -0.3
v 1.7 0.4 -0.3
v 1.7 0.9 -0.3
v 1.7 1 -0.3
v 1.8 0.2 -0.3
v 1.8 0.3 -0.3
v 2.1 0.1 -0.3
v 2.1 0.2 -0.3
v 2.1 0.5 -0.3
v 2.1 0.6 -0.3
v 2.2 0.5 -0.3
v 2.2 0.6 -0.3
v 2.3 0 -0.3
v 2.3 0.1 -0.3
v 2.9 0 -0.3
v 2.9 0.9 -0.3
v 3 0 -0.3
v 3 0.9 -0.3
v 2.3 0 0.2
v 2.9 0 0.2
v 3 0 0.2
v 0.8 0 0
v 1.1 0 0
v 0.8 0 -0.1
v 1.1 0 -0.1
v 2.3 0 -0.2
v 2.9 0 -0.2
v 2.3 0 -0.3
v 2.9 0 -0.3
v 3 0 -0.3
v 2.1 0.1 0.2
v 2.3 0.1 0.2
v 2.1 0.1 -0.2
v 2.3 0.1 -0.2
v 2.1 0.1 -0.3
v 2.3 0.1 -0.3
v 1.8 0.2 0.2
v 2.1 0.2 0.2
v 1.8 0.2 -0.2
v 2.1 0.2 -0.2
v 1.8 0.2 -0.3
v 2.1 0.2 -0.3
v 1.7 0.3 0.2
v 1.8 0.3 0.2
v 0.9 0.3 0
v 1 0.3 0
v 0.9 0.3 -0.1
v 1 0.3 -0.1
v 1.7 0.3 -0.2
v 1.8 0.3 -0.2
v 1.7 0.3 -0.3
v 1.8 0.3 -0.3
v 0.1 0.4 0.2
v 1.7 0.4 0.2
v 0.8 0.4 0
v 1.1 0.4 0
v 0.8 0.4 -0.1
v 1.1 0.4 -0.1
v 1.7 0.4 -0.2
v 0.1 0.4 -0.3
v 1.7 0.4 -0.3
v 2.38419e-007 0.5 0.1
v 0.1 0.5 0.1
v 2.38419e-007 0.5 -0.2
v 0.1 0.5 -0.2
v -1.8 0.6 0.2
v -1.7 0.6 0.2
v -1.5 0.6 0.2
v -1.4 0.6 0.2
v -1.1 0.6 0.2
v -1 0.6 0.2
v -0.9 0.6 0.2
v -0.8 0.6 0.2
v -0.2 0.6 0.1
v 2.38419e-007 0.6 0.1
v -0.2 0.6 -0.2
v 2.38419e-007 0.6 -0.2
v -1.8 0.6 -0.3
v -1.7 0.6 -0.3
v -1.5 0.6 -0.3
v -1.4 0.6 -0.3
v -1.1 0.6 -0.3
v -1 0.6 -0.3
v -0.9 0.6 -0.3
v -0.8 0.6 -0.3
v -2.5 0.7 0.1
v -1.8 0.7 0.1
v -0.8 0.7 0.1
v -0.2 0.7 0.1
v -2.5 0.7 -0.2
v -1.8 0.7 -0.2
v -0.8 0.7 -0.2
v -0.2 0.7 -0.2
v -2.5 1 0
v -2.4 1 0
v -2.3 1 0
v -1.9 1 0
v -1.8 1 0
v -1.4 1 0
v -2.5 1 -0.1
v -2.4 1 -0.1
v -2.3 1 -0.1
v -1.9 1 -0.1
v -1.8 1 -0.1
v -1.4 1 -0.1
v 0.9 0.1 0
v 1 0.1 0
v 0.9 0.1 -0.1
v 1 0.1 -0.1
v -2.5 0.8 0
v -1.4 0.8 0
v -2.5 0.8 -0.1
v -1.4 0.8 -0.1
v -1.8 0.9 0.2
v -1.7 0.9 0.2
v -0.9 0.9 0.2
v -0.8 0.9 0.2
v 1.7 0.9 0.2
v 2.9 0.9 0.2
v 3 0.9 0.2
v -1.8 0.9 0.1
v -1.7 0.9 0.1
v -0.9 0.9 0.1
v -0.8 0.9 0.1
v 1.7 0.9 0.1
v 2.1 0.9 0.1
v 2.2 0.9 0.1
v 2.9 0.9 0.1
v 2.1 0.9 0
v 2.2 0.9 0
v 2.3 0.9 0
v 2.2 0.9 -0.1
v 2.3 0.9 -0.1
v -1.8 0.9 -0.2
v -1.7 0.9 -0.2
v -1.2 0.9 -0.2
v -1 0.9 -0.2
v -0.9 0.9 -0.2
v -0.8 0.9 -0.2
v -1.8 0.9 -0.3
v -1.7 0.9 -0.3
v -1.2 0.9 -0.3
v -1 0.9 -0.3
v -0.9 0.9 -0.3
v -0.8 0.9 -0.3
v 1.7 0.9 -0.3
v 2.9 0.9 -0.3
v 3 0.9 -0.3
v 1.5 1 0.2
v 1.7 1 0.2
v 1.5 1 -0.3
v 1.7 1 -0.3
v 0.1 1.1 0.2
v 1.5 1.1 0.2
v -2.5 1.1 0.1
v -1.9 1.1 0.1
v -1.8 1.1 0.1
v -1.4 1.1 0.1
v -1.3 1.1 0.1
v -0.9 1.1 0.1
v -0.8 1.1 0.1
v -0.4 1.1 0.1
v -0.3 1.1 0.1
v 0.1 1.1 0.1
v 1.4 1.1 0.1
v 1.5 1.1 0.1
v -2.5 1.1 0
v -2.3 1.1 0
v -1.9 1.1 0
v -1.8 1.1 0
v -1.4 1.1 0
v -1.3 1.1 0
v -0.9 1.1 0
v -0.8 1.1 0
v -0.4 1.1 0
v -0.3 1.1 0
v 1.4 1.1 0
v 1.5 1.1 0
v -2.5 1.1 -0.1
v -2.3 1.1 -0.1
v -1.9 1.1 -0.1
v -1.8 1.1 -0.1
v -1.4 1.1 -0.1
v -1.3 1.1 -0.1
v -0.9 1.1 -0.1
v -0.8 1.1 -0.1
v -0.4 1.1 -0.1
v -0.3 1.1 -0.1
v 1.4 1.1 -0.1
v 1.5 1.1 -0.1
v -2.5 1.1 -0.2
v -1.9 1.1 -0.2
v -1.8 1.1 -0.2
v -1.4 1.1 -0.2
v -1.3 1.1 -0.2
v -0.9 1.1 -0.2
v -0.8 1.1 -0.2
v -0.4 1.1 -0.2
v -0.3 1.1 -0.2
v 0.1 1.1 -0.2
v 1.4 1.1 -0.2
v 1.5 1.1 -0.2
v 0.1 1.1 -0.3
v 1.5 1.1 -0.3
v 1.4 1.2 0.1
v 1.5 1.2 0.1
v -2.5 1.2 0
v -2.3 1.2 0
v 1.4 1.2 0
v 1.5 1.2 0
v -2.5 1.2 -0.1
v -2.3 1.2 -0.1
v 1.4 1.2 -0.1
v 1.5 1.2 -0.1
v 1.4 1.2 -0.2
v 1.5 1.2 -0.2

# faces
f 3/8/1 2/8/1 1/8/1
f 4/8/1 2/8/1 3/8/1
f 5/8/1 3/8/1 1/8/1
f 6/8/1 2/8/1 4/8/1
f 7/8/1 5/8/1 1/8/1
f 7/8/1 6/8/1 5/8/1
f 8/8/1 6/8/1 7/8/1
f 9/8/1 2/8/1 6/8/1
f 9/8/1 6/8/1 8/8/1
f 10/8/1 2/8/1 9/8/1
f 11/6/1 9/6/1 8/6/1
f 12/6/1 9/6/1 11/6/1
f 15/5/1 14/5/1 13/5/1
f 16/5/1 14/5/1 15/5/1
f 17/5/1 15/5/1 13/5/1
f 18/5/1 15/5/1 17/5/1
f 19/5/1 14/5/1 16/5/1
f 20/5/1 14/5/1 19/5/1
f 23/8/1 22/8/1 21/8/1
f 24/8/1 22/8/1 23/8/1
f 27/8/1 26/8/1 25/8/1
f 28/8/1 26/8/1 27/8/1
f 31/8/1 30/8/1 29/8/1
f 32/8/1 30/8/1 31/8/1
f 35/8/1 34/8/1 33/8/1
f 36/8/1 34/8/1 35/8/1
f 37/8/1 35/8/1 33/8/1
f 38/8/1 35/8/1 37/8/1
f 39/8/1 34/8/1 36/8/1
f 40/8/1 34/8/1 39/8/1
f 43/7/1 42/7/1 41/7/1
f 44/7/1 42/7/1 43/7/1
f 47/7/1 46/7/1 45/7/1
f 48/7/1 46/7/1 47/7/1
f 53/6/1 50/6/1 49/6/1
f 54/6/1 50/6/1 53/6/1
f 55/6/1 52/6/1 51/6/1
f 56/6/1 52/6/1 55/6/1
f 60/3/1 58/3/1 57/3/1
f 61/2/1 59/2/1 58/2/1
f 61/3/1 58/3/1 60/3/1
f 62/2/1 59/2/1 61/2/1
f 66/3/1 64/3/1 63/3/1
f 67/2/1 65/2/1 64/2/1
f 67/3/1 64/3/1 66/3/1
f 68/2/1 65/2/1 67/2/1
f 72/3/1 70/3/1 69/3/1
f 73/2/1 71/2/1 70/2/1
f 73/3/1 70/3/1 72/3/1
f 74/2/1 71/2/1 73/2/1
f 78/3/1 76/3/1 75/3/1
f 79/2/1 77/2/1 76/2/1
f 79/3/1 76/3/1 78/3/1
f 80/2/1 77/2/1 79/2/1
f 81/6/2 82/6/2 83/6/2
f 83/6/2 82/6/2 84/6/2
f 85/5/2 86/5/2 87/5/2
f 87/5/2 86/5/2 88/5/2
f 85/5/2 87/5/2 89/5/2
f 89/5/2 87/5/2 90/5/2
f 88/5/2 86/5/2 91/5/2
f 91/5/2 86/5/2 92/5/2
f 93/7/2 94/7/2 95/7/2
f 95/7/2 94/7/2 96/7/2
f 97/7/2 98/7/2 99/7/2
f 99/7/2 98/7/2 100/7/2
f 101/8/2 102/8/2 103/8/2
f 103/8/2 102/8/2 104/8/2
f 104/8/2 102/8/2 105/8/2
f 105/8/2 102/8/2 106/8/2
f 106/8/2 102/8/2 107/8/2
f 107/8/2 102/8/2 108/8/2
f 104/6/2 105/6/2 109/6/2
f 109/6/2 105/6/2 110/6/2
f 106/6/2 107/6/2 111/6/2
f 111/6/2 107/6/2 112/6/2
f 113/8/2 114/8/2 116/8/2
f 114/8/2 115/8/2 116/8/2
f 116/8/2 115/8/2 117/8/2
f 118/8/2 119/8/2 120/8/2
f 120/8/2 119/8/2 121/8/2
f 124/5/3 123/5/3 122/5/3
f 125/5/3 123/5/3 124/5/3
f 126/2/3 125/2/3 124/2/3
f 127/2/3 125/2/3 126/2/3
f 128/5/3 127/5/3 126/5/3
f 129/2/3 125/2/3 127/2/3
f 129/5/3 127/5/3 128/5/3
f 130/2/3 129/2/3 128/2/3
f 131/2/3 125/2/3 129/2/3
f 131/2/3 129/2/3 130/2/3
f 132/5/3 131/5/3 130/5/3
f 133/2/3 125/2/3 131/2/3
f 133/5/3 131/5/3 132/5/3
f 134/2/3 133/2/3 132/2/3
f 135/2/3 125/2/3 133/2/3
f 135/2/3 133/2/3 134/2/3
f 136/5/3 135/5/3 134/5/3
f 137/5/3 135/5/3 136/5/3
f 140/8/3 139/8/3 138/8/3
f 141/8/3 139/8/3 140/8/3
f 143/8/3 140/8/3 138/8/3
f 144/8/3 140/8/3 143/8/3
f 145/8/3 140/8/3 144/8/3
f 147/3/3 143/3/3 142/3/3
f 147/3/3 144/3/3 143/3/3
f 149/3/3 147/3/3 146/3/3
f 151/3/3 149/3/3 148/3/3
f 152/3/3 151/3/3 150/3/3
f 153/3/3 144/3/3 147/3/3
f 153/3/3 151/3/3 152/3/3
f 153/3/3 147/3/3 149/3/3
f 153/3/3 149/3/3 151/3/3
f 154/8/3 153/8/3 152/8/3
f 155/8/3 153/8/3 154/8/3
f 158/8/3 157/8/3 156/8/3
f 159/8/3 157/8/3 158/8/3
f 160/8/3 158/8/3 156/8/3
f 161/9/3 159/9/3 158/9/3
f 161/8/3 158/8/3 160/8/3
f 162/9/3 159/9/3 161/9/3
f 163/8/3 162/8/3 161/8/3
f 164/8/3 162/8/3 163/8/3
f 165/8/3 162/8/3 164/8/3
f 166/8/3 164/8/3 163/8/3
f 166/9/3 165/9/3 164/9/3
f 167/9/3 165/9/3 166/9/3
f 168/8/3 166/8/3 163/8/3
f 168/8/3 167/8/3 166/8/3
f 169/8/3 167/8/3 168/8/3
f 170/8/3 167/8/3 169/8/3
f 172/8/3 169/8/3 168/8/3
f 173/9/3 170/9/3 169/9/3
f 173/8/3 169/8/3 172/8/3
f 174/9/3 170/9/3 173/9/3
f 175/8/3 172/8/3 171/8/3
f 175/8/3 173/8/3 172/8/3
f 175/8/3 174/8/3 173/8/3
f 176/8/3 174/8/3 175/8/3
f 177/8/3 175/8/3 171/8/3
f 177/9/3 176/9/3 175/9/3
f 178/9/3 176/9/3 177/9/3
f 180/8/3 177/8/3 171/8/3
f 180/8/3 178/8/3 177/8/3
f 182/8/3 180/8/3 179/8/3
f 183/8/3 182/8/3 181/8/3
f 184/8/3 178/8/3 180/8/3
f 184/8/3 182/8/3 183/8/3
f 184/8/3 180/8/3 182/8/3
f 187/6/3 186/6/3 185/6/3
f 188/6/3 186/6/3 187/6/3
f 191/6/3 190/6/3 189/6/3
f 192/6/3 190/6/3 191/6/3
f 195/7/3 194/7/3 193/7/3
f 196/7/3 194/7/3 195/7/3
f 197/7/3 195/7/3 193/7/3
f 198/7/3 194/7/3 196/7/3
f 199/7/3 197/7/3 193/7/3
f 199/7/3 198/7/3 197/7/3
f 200/7/3 194/7/3 198/7/3
f 200/7/3 198/7/3 199/7/3
f 203/8/3 202/8/3 201/8/3
f 204/8/3 203/8/3 201/8/3
f 205/8/3 204/8/3 201/8/3
f 206/8/3 204/8/3 205/8/3
f 207/8/3 205/8/3 201/8/3
f 207/9/3 206/9/3 205/9/3
f 208/9/3 206/9/3 207/9/3
f 209/8/3 207/8/3 201/8/3
f 209/8/3 208/8/3 207/8/3
f 210/8/3 208/8/3 209/8/3
f 213/6/3 212/6/3 211/6/3
f 214/6/3 212/6/3 213/6/3
f 215/8/4 216/8/4 217/8/4
f 215/8/4 217/8/4 218/8/4
f 215/8/4 218/8/4 219/8/4
f 219/8/4 218/8/4 220/8/4
f 215/8/4 219/8/4 221/8/4
f 219/9/4 220/9/4 221/9/4
f 221/9/4 220/9/4 222/9/4
f 215/8/4 221/8/4 223/8/4
f 221/8/4 222/8/4 223/8/4
f 223/8/4 222/8/4 224/8/4
f 225/6/4 226/6/4 227/6/4
f 227/6/4 226/6/4 228/6/4
f 229/6/4 230/6/4 231/6/4
f 231/6/4 230/6/4 232/6/4
f 233/7/4 234/7/4 235/7/4
f 235/7/4 234/7/4 236/7/4
f 233/7/4 235/7/4 237/7/4
f 236/7/4 234/7/4 238/7/4
f 233/7/4 237/7/4 239/7/4
f 237/7/4 238/7/4 239/7/4
f 238/7/4 234/7/4 240/7/4
f 239/7/4 238/7/4 240/7/4
f 241/8/4 242/8/4 243/8/4
f 243/8/4 242/8/4 244/8/4
f 241/8/4 243/8/4 245/8/4
f 243/9/4 244/9/4 246/9/4
f 245/8/4 243/8/4 246/8/4
f 246/9/4 244/9/4 247/9/4
f 246/8/4 247/8/4 248/8/4
f 248/8/4 247/8/4 249/8/4
f 249/8/4 247/8/4 250/8/4
f 248/8/4 249/8/4 251/8/4
f 249/9/4 250/9/4 251/9/4
f 251/9/4 250/9/4 252/9/4
f 248/8/4 251/8/4 253/8/4
f 251/8/4 252/8/4 253/8/4
f 253/8/4 252/8/4 254/8/4
f 254/8/4 252/8/4 255/8/4
f 255/8/4 252/8/4 256/8/4
f 256/8/4 252/8/4 257/8/4
f 255/8/4 256/8/4 259/8/4
f 256/9/4 257/9/4 260/9/4
f 259/8/4 256/8/4 260/8/4
f 260/9/4 257/9/4 261/9/4
f 258/8/4 259/8/4 262/8/4
f 259/8/4 260/8/4 262/8/4
f 260/8/4 261/8/4 262/8/4
f 262/8/4 261/8/4 263/8/4
f 258/8/4 262/8/4 264/8/4
f 262/9/4 263/9/4 264/9/4
f 264/9/4 263/9/4 265/9/4
f 258/8/4 264/8/4 267/8/4
f 264/8/4 265/8/4 267/8/4
f 266/8/4 267/8/4 269/8/4
f 268/8/4 269/8/4 270/8/4
f 267/8/4 265/8/4 271/8/4
f 270/8/4 269/8/4 271/8/4
f 269/8/4 267/8/4 271/8/4
f 272/6/4 273/6/4 274/6/4
f 274/6/4 273/6/4 275/6/4
f 276/5/4 277/5/4 278/5/4
f 278/5/4 277/5/4 279/5/4
f 278/2/4 279/2/4 280/2/4
f 280/2/4 279/2/4 281/2/4
f 280/5/4 281/5/4 282/5/4
f 281/2/4 279/2/4 283/2/4
f 282/5/4 281/5/4 283/5/4
f 282/2/4 283/2/4 284/2/4
f 283/2/4 279/2/4 284/2/4
f 284/2/4 279/2/4 285/2/4
f 282/2/4 284/2/4 286/2/4
f 286/2/4 284/2/4 287/2/4
f 284/3/4 285/3/4 288/3/4
f 287/2/4 284/2/4 288/2/4
f 286/5/4 287/5/4 289/5/4
f 287/4/4 288/4/4 290/4/4
f 289/5/4 287/5/4 290/5/4
f 288/3/4 285/3/4 291/3/4
f 290/4/4 288/4/4 291/4/4
f 291/3/4 285/3/4 292/3/4
f 289/2/4 290/2/4 293/2/4
f 290/2/4 291/2/4 293/2/4
f 291/2/4 292/2/4 293/2/4
f 293/2/4 292/2/4 294/2/4
f 293/5/4 294/5/4 295/5/4
f 295/5/4 294/5/4 296/5/4
f 297/8/4 298/8/4 299/8/4
f 299/8/4 298/8/4 300/8/4
f 297/8/4 299/8/4 302/8/4
f 302/8/4 299/8/4 303/8/4
f 303/8/4 299/8/4 304/8/4
f 301/2/4 302/2/4 306/2/4
f 302/2/4 303/2/4 306/2/4
f 305/2/4 306/2/4 308/2/4
f 306/2/4 303/2/4 309/2/4
f 308/2/4 306/2/4 309/2/4
f 309/2/4 303/2/4 310/2/4
f 307/2/4 308/2/4 311/2/4
f 308/2/4 309/2/4 311/2/4
f 309/3/4 310/3/4 311/3/4
f 310/2/4 303/2/4 312/2/4
f 311/3/4 310/3/4 312/3/4
f 307/2/4 311/2/4 314/2/4
f 311/2/4 312/2/4 314/2/4
f 313/2/4 314/2/4 315/2/4
f 312/2/4 303/2/4 316/2/4
f 315/2/4 314/2/4 316/2/4
f 314/2/4 312/2/4 316/2/4
f 315/8/4 316/8/4 317/8/4
f 317/8/4 316/8/4 318/8/4
f 324/7/5 323/7/5 322/7/5
f 325/7/5 323/7/5 324/7/5
f 326/3/5 320/3/5 319/3/5
f 327/8/5 321/8/5 320/8/5
f 327/3/5 320/3/5 326/3/5
f 328/2/5 327/2/5 326/2/5
f 329/8/5 321/8/5 327/8/5
f 329/2/5 327/2/5 328/2/5
f 330/8/5 321/8/5 329/8/5
f 333/3/5 332/3/5 331/3/5
f 334/3/5 332/3/5 333/3/5
f 335/2/5 334/2/5 333/2/5
f 336/2/5 334/2/5 335/2/5
f 339/3/5 338/3/5 337/3/5
f 340/3/5 338/3/5 339/3/5
f 341/2/5 340/2/5 339/2/5
f 342/2/5 340/2/5 341/2/5
f 347/7/5 346/7/5 345/7/5
f 348/7/5 346/7/5 347/7/5
f 349/3/5 344/3/5 343/3/5
f 350/3/5 344/3/5 349/3/5
f 351/2/5 350/2/5 349/2/5
f 352/2/5 350/2/5 351/2/5
f 355/8/5 354/8/5 353/8/5
f 356/8/5 354/8/5 355/8/5
f 357/8/5 355/8/5 353/8/5
f 358/8/5 354/8/5 356/8/5
f 359/8/5 354/8/5 358/8/5
f 359/8/5 358/8/5 357/8/5
f 360/8/5 357/8/5 353/8/5
f 360/8/5 359/8/5 357/8/5
f 361/8/5 359/8/5 360/8/5
f 364/8/5 363/8/5 362/8/5
f 365/8/5 363/8/5 364/8/5
f 376/8/5 375/8/5 374/8/5
f 377/8/5 375/8/5 376/8/5
f 378/5/5 367/5/5 366/5/5
f 379/2/5 368/2/5 367/2/5
f 379/5/5 367/5/5 378/5/5
f 380/5/5 369/5/5 368/5/5
f 380/2/5 368/2/5 379/2/5
f 381/2/5 370/2/5 369/2/5
f 381/5/5 369/5/5 380/5/5
f 382/5/5 371/5/5 370/5/5
f 382/2/5 370/2/5 381/2/5
f 383/2/5 372/2/5 371/2/5
f 383/5/5 371/5/5 382/5/5
f 384/5/5 373/5/5 372/5/5
f 384/2/5 372/2/5 383/2/5
f 385/5/5 373/5/5 384/5/5
f 390/8/5 387/8/5 386/8/5
f 391/8/5 387/8/5 390/8/5
f 392/8/5 389/8/5 388/8/5
f 393/8/5 389/8/5 392/8/5
f 400/8/5 395/8/5 394/8/5
f 401/1/5 396/1/5 395/1/5
f 401/8/5 395/8/5 400/8/5
f 402/8/5 399/8/5 398/8/5
f 402/1/5 396/1/5 401/1/5
f 402/8/5 397/8/5 396/8/5
f 402/8/5 398/8/5 397/8/5
f 403/8/5 399/8/5 402/8/5
f 404/8/5 399/8/5 403/8/5
f 405/8/5 399/8/5 404/8/5
f 406/7/6 407/7/6 408/7/6
f 408/7/6 407/7/6 409/7/6
f 410/8/6 411/8/6 412/8/6
f 412/8/6 411/8/6 413/8/6
f 414/5/6 415/5/6 421/5/6
f 415/2/6 416/2/6 422/2/6
f 421/5/6 415/5/6 422/5/6
f 416/5/6 417/5/6 423/5/6
f 422/2/6 416/2/6 423/2/6
f 423/5/6 417/5/6 424/5/6
f 418/3/6 419/3/6 425/3/6
f 425/3/6 419/3/6 426/3/6
f 426/3/6 419/3/6 427/3/6
f 419/8/6 420/8/6 428/8/6
f 427/3/6 419/3/6 428/3/6
f 426/3/6 427/3/6 429/3/6
f 425/2/6 426/2/6 429/2/6
f 427/2/6 428/2/6 430/2/6
f 429/3/6 427/3/6 430/3/6
f 430/2/6 428/2/6 431/2/6
f 429/2/6 430/2/6 432/2/6
f 430/3/6 431/3/6 432/3/6
f 431/2/6 428/2/6 433/2/6
f 432/3/6 431/3/6 433/3/6
f 434/5/6 435/5/6 440/5/6
f 435/2/6 436/2/6 441/2/6
f 440/5/6 435/5/6 441/5/6
f 436/3/6 437/3/6 442/3/6
f 441/2/6 436/2/6 442/2/6
f 437/2/6 438/2/6 443/2/6
f 442/3/6 437/3/6 443/3/6
f 438/5/6 439/5/6 444/5/6
f 443/2/6 438/2/6 444/2/6
f 444/5/6 439/5/6 445/5/6
f 425/2/6 429/2/6 446/2/6
f 429/2/6 432/2/6 446/2/6
f 432/2/6 433/2/6 446/2/6
f 428/8/6 420/8/6 447/8/6
f 446/2/6 433/2/6 447/2/6
f 433/2/6 428/2/6 447/2/6
f 447/8/6 420/8/6 448/8/6
f 449/8/6 450/8/6 451/8/6
f 451/8/6 450/8/6 452/8/6
f 453/8/6 454/8/6 464/8/6
f 464/8/6 454/8/6 465/8/6
f 465/8/6 454/8/6 466/8/6
f 455/8/6 456/8/6 467/8/6
f 467/8/6 456/8/6 468/8/6
f 456/9/6 457/9/6 469/9/6
f 468/8/6 456/8/6 469/8/6
f 457/8/6 458/8/6 470/8/6
f 469/9/6 457/9/6 470/9/6
f 458/9/6 459/9/6 471/9/6
f 470/8/6 458/8/6 471/8/6
f 459/8/6 460/8/6 472/8/6
f 471/9/6 459/9/6 472/9/6
f 460/9/6 461/9/6 473/9/6
f 472/8/6 460/8/6 473/8/6
f 461/8/6 462/8/6 474/8/6
f 473/9/6 461/9/6 474/9/6
f 462/9/6 463/9/6 475/9/6
f 474/8/6 462/8/6 475/8/6
f 463/8/6 464/8/6 476/8/6
f 475/9/6 463/9/6 476/9/6
f 464/8/6 465/8/6 476/8/6
f 476/8/6 465/8/6 477/8/6
f 473/8/6 474/8/6 480/8/6
f 476/8/6 477/8/6 480/8/6
f 475/8/6 476/8/6 480/8/6
f 477/8/6 478/8/6 480/8/6
f 474/8/6 475/8/6 480/8/6
f 468/8/6 469/8/6 480/8/6
f 472/8/6 473/8/6 480/8/6
f 471/8/6 472/8/6 480/8/6
f 470/8/6 471/8/6 480/8/6
f 469/8/6 470/8/6 480/8/6
f 480/8/6 478/8/6 481/8/6
f 481/8/6 478/8/6 482/8/6
f 482/8/6 478/8/6 483/8/6
f 483/8/6 478/8/6 484/8/6
f 484/8/6 478/8/6 485/8/6
f 485/8/6 478/8/6 486/8/6
f 486/8/6 478/8/6 487/8/6
f 487/8/6 478/8/6 488/8/6
f 488/8/6 478/8/6 489/8/6
f 489/8/6 478/8/6 490/8/6
f 479/8/6 480/8/6 491/8/6
f 480/8/6 481/8/6 491/8/6
f 481/9/6 482/9/6 492/9/6
f 491/8/6 481/8/6 492/8/6
f 482/8/6 483/8/6 493/8/6
f 492/9/6 482/9/6 493/9/6
f 483/9/6 484/9/6 494/9/6
f 493/8/6 483/8/6 494/8/6
f 484/8/6 485/8/6 495/8/6
f 494/9/6 484/9/6 495/9/6
f 485/9/6 486/9/6 496/9/6
f 495/8/6 485/8/6 496/8/6
f 486/8/6 487/8/6 497/8/6
f 496/9/6 486/9/6 497/9/6
f 487/9/6 488/9/6 498/9/6
f 497/8/6 487/8/6 498/8/6
f 488/8/6 489/8/6 499/8/6
f 498/9/6 488/9/6 499/9/6
f 499/8/6 489/8/6 500/8/6
f 500/8/6 489/8/6 501/8/6
f 501/8/6 502/8/6 503/8/6
f 500/8/6 501/8/6 503/8/6
f 503/8/6 502/8/6 504/8/6
f 505/6/6 506/6/6 509/6/6
f 509/6/6 506/6/6 510/6/6
f 507/6/6 508/6/6 511/6/6
f 511/6/6 508/6/6 512/6/6
f 513/6/6 514/6/6 515/6/6
f 515/6/6 514/6/6 516/6/6
